<svg width="32" height="32" viewBox="0 0 32 32" fill="none" xmlns="http://www.w3.org/2000/svg">
<path d="M16 0.315918C7.38429 0.315918 0.375 7.23092 0.375 15.7303C0.375 24.2296 7.3845 31.1446 16 31.1446C24.6155 31.1446 31.625 24.2296 31.625 15.7303C31.625 7.23092 24.6155 0.315918 16 0.315918ZM16.625 29.8953V28.345C16.625 28.004 16.3457 27.7284 16 27.7284C15.6551 27.7284 15.375 28.004 15.375 28.345V29.8958C7.945 29.5801 1.96071 23.6764 1.64143 16.3467H2.96343C3.30829 16.3467 3.58843 16.0712 3.58843 15.7301C3.58843 15.3899 3.30829 15.1135 2.96343 15.1135H1.64143C1.96091 7.78372 7.94529 1.88011 15.375 1.56513V2.86931C15.375 3.20952 15.6551 3.48588 16 3.48588C16.3457 3.48588 16.625 3.20952 16.625 2.86931V1.56513C24.055 1.8803 30.0393 7.784 30.3586 15.1135H29.036C28.6903 15.1135 28.411 15.3899 28.411 15.7301C28.411 16.0712 28.6903 16.3467 29.036 16.3467H30.3586C30.0391 23.6765 24.0547 29.5801 16.625 29.8951V29.8953Z" fill="black"/>
<path d="M16.625 15.4751V4.77136C16.625 4.43114 16.3457 4.15479 16 4.15479C15.6551 4.15479 15.375 4.43114 15.375 4.77136V15.9853L22.4824 22.9969C22.6044 23.1171 22.7642 23.1774 22.9244 23.1774C23.0843 23.1774 23.2444 23.1169 23.3664 22.9969C23.6108 22.7557 23.6108 22.366 23.3664 22.1251L16.625 15.4751Z" fill="black"/>
</svg>
