<svg width="55" height="55" viewBox="0 0 55 55" fill="none" xmlns="http://www.w3.org/2000/svg">
<g clip-path="url(#clip0_14_113)">
<path d="M54.0733 27.4484C54.0733 12.7593 42.1719 0.85791 27.4828 0.85791C12.7937 0.85791 0.892273 12.7593 0.892273 27.4484C0.892273 40.7201 10.616 51.7209 23.328 53.7173V35.135H16.5732V27.4484H23.328V21.5899C23.328 14.9262 27.2952 11.2454 33.3713 11.2454C36.2813 11.2454 39.3242 11.7643 39.3242 11.7643V18.3047H35.9703C32.6679 18.3047 31.6376 20.3548 31.6376 22.4573V27.4484H39.0121L37.8327 35.135H31.6376V53.7173C44.3495 51.7209 54.0733 40.7201 54.0733 27.4484Z" fill="white"/>
</g>
<defs>
<clipPath id="clip0_14_113">
<rect width="54.8966" height="54.8966" fill="white" transform="translate(0.0344849)"/>
</clipPath>
</defs>
</svg>
