<svg width="40" height="40" viewBox="0 0 40 40" fill="none" xmlns="http://www.w3.org/2000/svg">
<path d="M39.4987 12.1737C39.4988 12.1738 39.4989 12.1739 39.499 12.174C39.4995 12.1747 39.5 12.1758 39.5 12.178V12.1814L39.4994 38.9526C39.4994 38.9547 39.4984 38.9578 39.4963 38.9603L39.4971 38.9605L39.4976 38.9607L39.4985 38.961L39.4978 38.963L39.7939 39.3624C39.9223 39.2662 39.9994 39.1144 39.9994 38.9526L40 12.1814L39.6509 11.697M39.4987 12.1737L39.499 12.1738C39.4991 12.1738 39.4988 12.1737 39.4986 12.1736L39.4986 12.1736C39.4986 12.1736 39.4986 12.1736 39.4987 12.1737ZM39.4987 12.1737L39.0945 12.0449L39.0947 12.0438M39.0947 12.0438L39.4983 12.1732L39.6508 11.6974L39.6509 11.697M39.0947 12.0438L39.1561 11.6248L39.1562 11.6245L39.6509 11.697M39.0947 12.0438L26.5699 8.02965L26.5585 8.02967C26.5496 8.02964 26.5389 8.02951 26.5269 8.02911L26.4896 8.02788L26.489 8.02799L26.4433 8.02921C26.4311 8.02953 26.4201 8.02958 26.4111 8.02955L26.404 8.02948L20.5705 9.89925L19.7284 10.1692L19.8112 9.81785C19.7775 9.94094 19.7417 10.0659 19.7038 10.1926L19.9418 10.1163L25.791 8.24162L26.4436 8.03246L26.4436 8.71776L26.4438 34.4241L26.4438 34.7889L26.0964 34.9002L14.128 38.7349L13.4754 38.944V38.2587V22.5533V22.3804L13.4724 22.3761V22.5183V38.2594V38.9446L12.8198 38.7356L0.85145 34.9009L0.504011 34.7896L0.50401 34.4248L0.503903 8.71834L0.5039 8.03307L1.15648 8.24218L6.88208 10.0769L7.14045 10.1597L7.21187 10.4215C7.72677 12.3086 8.66186 14.4932 10.0264 16.9588L10.0265 16.9589C11.6171 19.8342 13.2258 22.0402 13.2882 22.1257C13.2895 22.1275 13.2901 22.1283 13.29 22.1282L13.2929 22.1319L13.3035 22.1427L13.3127 22.1517L13.3166 22.1556L13.0722 21.8095C12.5705 21.0991 11.2957 19.2381 10.0272 16.9461L10.4172 16.7303L10.0272 16.9461C7.87832 13.0632 6.74316 9.81079 6.74316 7.31001C6.74316 3.73625 9.48696 0.79309 12.9899 0.535458V0.516909H13.4899C17.1994 0.516909 20.2059 3.56983 20.2059 7.30977C20.2059 7.45828 20.2002 7.61173 20.1888 7.77007C20.2017 7.60903 20.2082 7.45531 20.2082 7.30916C20.2082 3.55013 17.1894 0.5 13.4586 0.5C9.75978 0.5 6.739 3.54879 6.739 7.30916C6.739 7.91843 6.8091 8.58392 6.94852 9.30417L7.10895 10.133L6.30502 9.87533L0.502527 8.0155C0.501563 8.01663 0.5 8.0192 0.5 8.02299V34.7957C0.5 34.7988 0.500861 34.801 0.502087 34.8027C0.502703 34.8036 0.503224 34.804 0.503422 34.8042L0.503737 34.8043L13.4522 38.9537L13.4598 38.9561M13.4598 38.9561C13.46 38.9562 13.4601 38.9562 13.4602 38.9562L13.4598 38.9561Z" fill="black" stroke="black"/>
<path d="M16.5914 7.47621C16.5914 9.22581 15.186 10.6397 13.4739 10.6397C11.7607 10.6397 10.3557 9.22641 10.3557 7.47621C10.3557 5.72578 11.7609 4.31152 13.4739 4.31152C15.1867 4.31152 16.5914 5.72567 16.5914 7.47621ZM16.5879 7.47613C16.5879 5.74551 15.1972 4.32774 13.4739 4.32774C11.75 4.32774 10.3593 5.74544 10.3593 7.47613C10.3593 9.2058 11.7502 10.6234 13.4739 10.6234C15.1981 10.6234 16.5879 9.20562 16.5879 7.47613Z" fill="black" stroke="black"/>
</svg>
