<svg width="402" height="78" viewBox="0 0 402 78" fill="none" xmlns="http://www.w3.org/2000/svg">
<path d="M30.4899 61.0523C47.329 61.0523 60.9798 47.3853 60.9798 30.5262C60.9798 13.667 47.329 0 30.4899 0C13.6508 0 0 13.667 0 30.5262C0 47.3853 13.6508 61.0523 30.4899 61.0523Z" fill="#A76B11"/>
<path d="M77.3108 68.3818C76.5063 64.2741 72.1621 60.7302 68.9442 57.8306C67.2548 56.3003 66.6112 54.2061 66.6916 51.9509C66.7721 50.0984 66.8525 48.3264 65.8067 46.635C65.2435 45.5879 65.9676 43.977 65.8871 42.7689C65.8067 41.3191 66.2089 39.8693 66.2894 38.339C66.3698 36.9697 67.0134 35.9226 67.8983 35.0367C68.2201 34.6339 68.4615 32.1371 69.1051 30.8484C69.5073 30.0429 71.1967 24.5659 71.1163 22.0691C71.0358 19.5722 70.3922 13.5314 67.657 10.6318C66.7721 9.18206 62.991 3.30235 53.8199 3.54398C52.2109 3.62453 50.6824 3.46344 49.0734 3.46344C47.4645 3.38289 40.5459 3.22181 36.604 1.85256C35.3168 1.36929 34.5928 0.6444 34.7537 1.44984C34.9145 2.17473 35.7995 2.49691 35.1559 2.41637C34.8341 2.41637 33.0642 1.36929 32.9838 1.28875C32.5815 0.966575 31.938 0.6444 33.0642 3.06072C33.5469 3.9467 33.5469 4.34942 33.0642 3.70507C32.5815 3.14126 32.2598 2.41637 31.8575 1.85256C31.053 0.724944 30.8117 0.805487 30.5703 1.20821C30.2485 2.09419 30.0877 2.73854 30.0072 3.62452C29.8463 5.07432 29.1223 7.65172 29.5245 9.10151C29.7659 9.9875 29.6854 11.6789 30.0072 12.2427C30.4094 12.8871 30.7312 13.1287 30.329 13.5314C30.0877 13.7731 29.5245 14.2563 29.2832 15.0618C28.8809 16.3505 28.72 16.8337 28.3178 18.1224C28.0764 19.0084 27.1111 19.9749 26.7088 20.8609C25.9043 22.4718 25.9043 22.2302 25.9848 24.1632C25.9848 24.8881 26.3066 26.7406 25.9848 27.385C25.9043 27.5461 25.8239 27.7072 25.7434 27.8682C25.2608 28.7542 24.939 29.5597 24.3758 30.6873C23.8931 31.7344 23.1691 33.3452 22.6864 34.3118C22.2037 35.1172 21.6406 35.8421 21.1579 36.6475C21.0774 36.8086 20.6752 37.7752 21.3188 38.2584C21.8819 38.7417 22.0428 38.8222 22.6864 38.9833C23.4104 39.2249 24.2149 39.1444 24.939 39.0639C25.1803 39.0639 25.5021 38.9833 25.7434 38.9028C26.5479 38.6611 27.3524 38.2584 27.3524 39.1444C27.3524 39.6277 26.6284 40.5136 26.387 40.8358C26.2261 40.9969 26.1457 42.1245 26.7893 43.0911C27.272 43.5743 26.5479 44.6214 26.1457 45.749C25.9043 46.5544 25.3412 47.6821 26.1457 48.8097C26.5479 49.3735 26.5479 49.454 26.1457 49.8567C25.7434 50.34 25.7434 50.8233 25.9848 51.3065C26.1457 51.7898 26.7088 52.998 26.9502 53.4007C27.3524 54.045 27.8351 54.5283 27.272 55.0116C26.6284 55.4948 26.4675 56.1392 26.5479 56.8641C26.6284 57.8306 26.7893 58.7971 26.8697 59.7636C26.9502 60.8107 26.9502 61.7772 27.1111 62.8243C27.5133 65.7239 27.8351 68.1402 25.663 69.9927C25.4217 70.1538 25.1803 70.3149 24.939 70.5565C22.8473 71.8452 21.721 74.0199 20.5143 76.1141C20.1121 76.839 20.6752 77.0806 21.5601 77.0806C22.5255 77.0806 23.0082 75.7919 23.6518 74.9864C24.3758 74.1005 24.7781 73.0534 25.5021 72.248L25.663 72.0063C26.0652 71.5231 26.4675 71.0398 26.8697 70.6371C27.4329 69.9927 27.9155 69.6705 28.4787 69.0262C28.5591 68.9457 28.9614 68.3818 28.8809 67.657C28.8005 66.3682 28.3178 65.5628 28.1569 64.1936C28.0764 63.1465 28.2373 62.5827 28.1569 61.5356C27.996 60.2469 27.6742 59.2804 27.4329 57.9917C27.272 57.1862 27.5938 56.6224 28.0764 56.0586C28.3178 55.817 28.8005 55.7364 29.0418 56.0586C29.8463 56.9446 30.329 57.4279 30.5703 58.5555C30.9726 60.2469 31.2139 62.0189 31.6966 63.6298C32.0989 64.8379 32.8229 66.0461 32.662 67.2542C32.5011 68.704 32.3402 71.2009 33.0642 70.8787C33.4665 70.8787 39.2588 65.3212 39.8219 64.999C40.9482 64.2741 42.1549 63.8714 43.2812 63.227C43.6834 63.0659 44.1661 62.9049 44.4074 62.9049C45.4533 62.7438 46.5795 62.2605 47.7058 62.0994C49.8779 61.7772 51.7282 61.294 52.2914 61.1329C53.1763 60.8913 56.5551 60.0858 57.2792 59.7636C58.4054 59.1998 60.7384 57.75 61.9452 57.1057C62.5888 56.703 64.2782 56.5419 64.4391 56.5419C65.2435 56.2197 65.9676 55.9781 66.4503 56.5419C66.933 57.1057 67.1743 57.9111 67.7374 58.3944C69.5878 60.2469 72.8861 61.7772 73.5297 64.2741C73.8515 65.5628 75.2191 67.5764 75.7018 68.7846C75.7823 69.0262 76.4259 69.2678 76.7476 69.1873C77.3912 69.0262 77.3912 68.6235 77.3108 68.3818ZM27.1111 22.0691C27.4329 21.2636 28.1569 20.5387 28.4787 19.7333C28.72 19.089 29.0418 18.6862 29.2027 17.9613C29.5245 16.9143 29.6854 16.2699 30.0072 15.2229C30.1681 14.8201 31.053 13.8536 31.2944 13.5314C32.0989 12.1622 32.7424 10.954 34.1101 10.068C34.8341 9.58478 35.7995 9.66532 36.5235 9.82641C38.2129 10.3097 39.8219 10.068 41.5113 9.66532C43.1203 9.2626 44.4879 9.58478 46.0164 10.2291C46.9013 10.6318 47.384 11.4373 46.66 12.0816C46.1773 12.5649 45.4533 13.1287 44.9706 13.612C44.0052 14.659 43.3616 15.0618 42.9594 15.7061C42.6376 16.1894 42.5571 17.2364 42.8789 17.1559C46.3382 15.7867 44.8901 16.9948 42.3158 18.203C42.0744 18.3641 42.6376 18.8473 43.4421 19.0084C44.8097 19.1695 43.2007 19.3306 43.3616 19.9749C43.8443 21.1026 45.2119 21.2636 45.2924 21.5858C45.3728 21.7469 43.7639 22.5523 42.8789 22.9551C41.4309 23.5994 39.0979 24.4854 37.7302 24.6465C37.0062 24.9687 34.9145 25.0492 34.4319 24.9687C33.7883 24.8881 32.7424 24.5659 32.0184 24.4854C31.5357 23.3578 28.2373 22.6329 28.1569 25.7741C28.0764 26.9017 28.3178 27.2239 27.5938 27.1434C26.4675 26.9823 26.8697 26.5795 26.7893 25.4519C26.7088 24.2438 26.6284 23.1967 27.1111 22.0691ZM32.7424 27.1434C32.7424 26.1768 32.0184 25.2103 32.4207 25.3714C33.6274 25.6936 35.0754 25.6936 35.1559 25.9352C35.4777 26.2574 32.7424 27.7072 32.7424 27.1434ZM31.8575 30.6873C30.1681 31.4122 28.8005 27.7072 29.1223 26.0963C29.2832 25.2103 29.5245 24.6465 30.4094 24.6465C31.2944 24.6465 32.0989 27.0628 31.1335 27.6266C31.7771 28.5126 32.5815 30.0429 31.8575 30.6873ZM27.1915 46.8766C27.272 46.635 28.3178 44.4603 28.0764 43.4132C27.7547 42.8494 27.4329 42.044 27.6742 41.9634C28.2373 41.9634 28.4787 41.9634 28.72 42.1245C29.3636 42.6883 29.9268 42.6078 30.2485 42.6078C30.5703 42.6078 30.8117 42.5272 31.053 42.4467H31.1335C31.2944 42.6078 31.3748 43.0105 31.5357 43.0105C31.6162 43.0105 31.6966 42.8494 31.6966 42.6883C31.6966 42.5272 31.5357 42.1245 31.6162 41.6413C31.6162 41.4802 31.7771 40.9164 31.5357 40.9164C31.3748 40.9164 31.1335 41.158 31.053 41.6413C31.053 41.9634 30.4094 41.9634 29.8463 41.8829C29.4441 41.8023 29.2027 41.3191 28.5591 41.2385C27.996 41.158 27.5133 41.158 27.272 41.0775C27.1111 40.9164 27.1915 40.8358 27.3524 40.6747C27.8351 40.0304 28.1569 39.4666 27.996 38.7417C27.9155 38.4195 28.3982 38.7417 28.6396 38.7417C29.7659 38.8222 29.6854 38.0168 29.7659 36.9697C29.8463 36.0837 29.2832 35.9226 29.1223 36.0837C28.72 36.4059 30.0072 38.0973 28.8809 38.339C28.5591 38.4195 27.5133 37.6946 27.1111 37.6946C26.5479 37.6141 26.2261 37.6946 25.8239 37.8557C25.2608 38.0973 24.8585 38.4195 24.2954 38.5C23.7322 38.5806 22.6864 38.4195 22.3646 37.8557C21.8015 37.0503 22.4451 35.9226 23.0887 35.0367C23.9736 33.748 24.1345 32.7814 25.0194 30.9289C25.1803 30.5262 25.5021 29.9624 25.8239 29.3986C26.0652 28.9153 26.3066 28.5126 26.4675 28.1904C26.5479 28.0293 26.9502 27.4655 27.0306 27.385C27.3524 27.3044 27.7547 27.3044 28.0764 27.7072C28.5591 28.1904 28.4787 29.3986 29.3636 30.3651C29.7659 30.8484 30.8921 31.3316 31.4553 31.1706C32.0184 31.09 32.5815 30.4457 32.7424 29.5597C32.7424 29.2375 32.8229 28.1904 33.1447 27.9488C34.1905 27.3044 35.3168 26.499 36.4431 25.9352C38.7761 24.8881 43.1203 25.6936 43.2007 26.0963C43.2812 26.3379 42.7985 26.4185 42.7985 26.6601C43.4421 28.0293 47.1427 28.0293 48.1885 27.5461C49.4757 26.9823 49.9584 28.5931 50.602 27.7877C52.05 25.9352 54.0612 26.3379 54.383 27.3044C54.5439 27.7072 54.3026 28.6737 54.2221 29.0764C53.9003 30.4457 53.4981 31.1706 52.7741 32.5398C51.2455 35.2783 48.7517 34.795 49.0734 36.0032C49.2343 36.4865 50.0388 37.3724 52.6936 37.1308C53.1763 37.1308 53.659 37.2113 53.9808 37.6141C54.3026 38.0168 54.6244 38.5 54.7853 38.8222C54.6244 39.2249 53.8199 39.9498 53.0959 40.5136H53.0154C48.9125 41.6413 45.6946 42.2051 41.3504 42.93C40.3046 43.0911 38.5347 43.6549 37.4889 43.7354C36.9258 43.8159 35.3168 43.8159 34.8341 44.1381C34.4319 44.4603 34.5123 45.0241 34.5123 45.5074C34.5928 46.635 34.3514 47.7626 34.1101 48.8902C32.9033 49.2124 31.8575 49.454 31.053 49.5346C29.2027 49.8567 26.8697 48.7291 27.1915 46.8766ZM34.5928 49.0513C34.995 48.407 35.2363 47.6015 35.1559 46.7155C35.0754 46.0712 35.0754 45.4268 35.6386 45.1852C36.0408 45.0241 37.4084 44.7019 38.052 44.7019C39.7414 44.5408 40.7873 43.977 42.4767 43.7354C46.0969 43.0911 48.8321 42.7689 51.7282 41.8024C50.4411 42.3662 40.7068 47.1182 34.5928 49.0513ZM47.7863 61.5356C46.9818 61.6162 46.0164 62.0189 45.6946 62.0994C44.8901 62.4216 44.9706 62.0189 44.9706 62.0189C45.6142 61.6162 46.2578 61.2134 46.9818 60.8107C48.269 60.0858 50.8433 59.7636 51.326 59.6831C53.2568 59.2804 56.5551 58.3944 56.7965 58.8777C57.2792 59.9247 50.7629 61.1329 47.7863 61.5356ZM64.8413 54.6088C64.6 54.7699 60.658 57.0252 58.9686 57.589C57.3596 58.0722 55.8311 58.1528 54.1417 58.4749C52.1305 58.8777 51.0042 58.9582 48.9125 59.3609C48.1081 59.522 46.9013 60.0053 46.1773 60.408C43.6834 62.0189 42.4767 62.5827 39.9828 64.1936C39.7414 64.3546 36.8453 66.6099 34.995 68.4624C35.2363 67.5764 35.4777 64.8379 35.3972 64.0325C35.3168 62.7438 34.995 61.5356 34.8341 60.2469C34.5123 58.3944 34.5928 58.3139 34.1101 56.4613C33.6274 54.7699 34.0296 53.159 35.3972 52.112C36.7649 51.1454 45.2924 45.9906 47.1427 44.9436C49.1539 43.8159 56.3942 40.0304 58.6468 37.8557C60.0144 36.567 62.3474 36.6475 64.1977 36.1643C64.7609 36.0032 65.2435 36.3254 65.1631 36.9697C65.0826 37.8557 65.0022 38.7417 64.8413 39.6277C64.4391 41.3191 63.4737 43.1716 64.0368 44.863C64.2782 45.749 64.6 46.5544 65.0827 47.3599C65.4849 48.1653 65.4849 48.9708 65.4044 49.7762C65.324 50.8233 65.324 51.9509 65.4849 52.9174C65.6458 53.8839 65.4044 54.2867 64.8413 54.6088Z" fill="white"/>
<path d="M49.7975 32.9426C50.2802 33.2647 51.2455 32.4593 51.7282 31.8149C52.5327 30.5262 52.6936 30.2041 52.7741 29.7208C52.8545 29.3986 52.5327 29.157 52.2914 29.5597C51.8087 30.8484 51.4064 31.0095 50.602 31.4928C49.4757 31.8955 49.2343 32.5398 49.7975 32.9426Z" fill="white"/>
<path d="M30.4899 22.3912C32.3402 22.069 33.2251 21.7469 34.7537 21.5052C35.0754 21.5052 36.1213 21.3442 36.1213 21.022C36.1213 20.6193 33.7883 20.6193 33.5469 20.5387C32.7424 20.4582 31.4553 20.3776 30.5703 20.6998C29.9268 20.9414 28.5591 22.069 28.8809 22.3912C29.2832 22.7939 30.0877 22.4718 30.4899 22.3912Z" fill="white"/>
<path d="M114.076 23.1967V22.4718H112.628H111.18H108.444V23.1967H108.525C109.41 23.1967 109.892 24.1632 109.329 24.8881L101.526 35.1977L95.0094 24.8076C94.6072 24.0827 95.0898 23.1967 95.8943 23.1967H96.0552V22.4718H93.5613H89.1367H87.6886V23.1967H88.0104C89.0562 23.1967 90.0216 23.7605 90.5043 24.5659L99.1927 38.339L90.1825 50.2595C89.6194 50.9844 88.7344 51.4676 87.8495 51.4676H87.3668V52.1925H88.7344H90.1825H92.6764V51.4676C91.8719 51.4676 91.4697 50.5816 91.9524 49.9373L99.9167 39.4666L106.514 49.9373C106.916 50.6622 106.433 51.5482 105.629 51.5482H105.468V52.2731H107.962H112.386H113.834V51.5482H113.432C112.386 51.5482 111.421 50.9844 110.938 50.1789L102.169 36.1643L110.777 24.727C111.582 23.7605 112.788 23.1967 114.076 23.1967Z" fill="white"/>
<path d="M153.737 26.0963V48.4069C153.737 50.0178 155.104 51.3871 156.713 51.3871V52.1119H146.335V51.3871C147.944 51.3871 149.312 50.0178 149.312 48.4069V25.4519L138.451 47.5209L136.199 52.1925H136.118L135.475 50.7427L124.132 25.7741V49.9373C124.132 50.7427 124.775 51.3871 125.58 51.3871H127.028V52.1119H119.627V51.3871H121.075C121.879 51.3871 122.523 50.7427 122.523 49.9373V26.0963C122.523 24.4854 121.155 23.1161 119.546 23.1161V22.3912H126.947L137.567 45.9101L149.071 22.3912H156.472V23.1161C155.024 23.1967 153.737 24.4854 153.737 26.0963Z" fill="white"/>
<path d="M323.161 51.4676C322.034 51.4676 321.069 50.9038 320.506 49.9373L306.508 24.0021L305.623 22.3912L303.692 27.1433L299.589 37.3724L299.428 37.6946L294.682 49.5345C294.199 50.6622 293.153 51.3871 291.947 51.3871H291.062V52.1119H297.739V51.3871H297.015C296.291 51.3871 295.808 50.6622 296.05 49.9373L300.555 38.8222H310.128L316.081 49.8567C316.483 50.5816 315.92 51.3871 315.196 51.3871H315.116V52.1119H323.322V51.3871H323.161V51.4676ZM301.118 37.3724L304.577 28.6737L309.243 37.3724H301.118Z" fill="white"/>
<path d="M210.855 48.4069V25.2103C210.855 24.0827 211.74 23.1967 212.866 23.1967V22.4718H210.855H207.878H206.43H204.178V23.1967H204.419C205.224 23.1967 205.706 24.0021 205.384 24.727L193.076 49.7762C192.593 50.8233 191.547 51.4676 190.421 51.4676H188.973V52.1925H191.95H193.398H195.57V51.4676H195.409C194.604 51.4676 194.122 50.6622 194.443 49.9373L206.43 25.4519V48.4069C206.43 50.0178 205.063 51.3871 203.454 51.3871V52.1925H206.43H210.855H213.831V51.3871C212.223 51.3871 210.855 50.0178 210.855 48.4069Z" fill="white"/>
<path d="M253.653 23.1967V22.4718H250.677H247.781H246.333H246.252H243.276V23.1967H244.16C245.045 23.1967 245.769 23.9216 245.85 24.8076L227.99 48.3264V26.1768C227.99 24.5659 229.358 23.1967 230.967 23.1967V22.4718H227.99H223.566H220.589V23.1967C222.198 23.1967 223.566 24.5659 223.566 26.1768V48.4875C223.566 50.0984 222.198 51.4676 220.589 51.4676V52.1925H223.566H226.542H227.99H230.967V51.4676H229.921C229.117 51.4676 228.393 50.7427 228.473 49.9373L246.252 26.3379V48.4875C246.252 50.0984 244.885 51.4676 243.276 51.4676V52.1925H246.252H250.677H253.653V51.4676C252.044 51.4676 250.677 50.0984 250.677 48.4875V26.1768C250.677 24.4854 252.044 23.1967 253.653 23.1967Z" fill="white"/>
<path d="M289.775 25.9352L290.096 26.8212H290.82L289.372 22.3912H288.648H276.742H272.317H260.411H259.687V22.4718L258.239 26.9017H258.963L259.285 26.0157C259.687 24.8076 260.813 23.9216 262.1 23.9216H272.317V48.4875C272.317 50.0984 270.95 51.4676 269.341 51.4676V52.1925H272.317H276.742H279.719V51.4676C278.11 51.4676 276.742 50.0984 276.742 48.4875V23.9216H286.959C288.246 23.9216 289.372 24.727 289.775 25.9352Z" fill="white"/>
<path d="M184.548 48.568C184.146 49.7762 183.02 50.6622 181.733 50.6622H169.183V38.9833H174.412C175.216 38.9833 175.86 39.6277 175.86 40.4331V41.8829H176.584V38.9833V37.3724V34.4728H175.86V35.9226C175.86 36.7281 175.216 37.3724 174.412 37.3724H169.183V23.9216H181.652C182.939 23.9216 184.066 24.727 184.468 26.0157L184.79 26.9017H185.514L184.066 22.4718H183.985H183.422H169.263H164.838H161.862V23.1967C163.471 23.1967 164.838 24.5659 164.838 26.1768V48.4875C164.838 50.0984 163.471 51.4676 161.862 51.4676V52.1925H164.838H169.263H183.422H184.146H184.227L185.675 47.7626H184.951L184.548 48.568Z" fill="white"/>
</svg>
