<svg width="55" height="55" viewBox="0 0 55 55" fill="none" xmlns="http://www.w3.org/2000/svg">
<g clip-path="url(#clip0_14_111)">
<path d="M27.5215 0.85791C12.836 0.85791 0.93103 12.7629 0.93103 27.4484C0.93103 42.134 12.836 54.0389 27.5215 54.0389C42.2071 54.0389 54.1121 42.134 54.1121 27.4484C54.1121 12.7629 42.2071 0.85791 27.5215 0.85791ZM39.8467 18.9416C39.4465 23.1462 37.715 33.3496 36.8338 38.0589C36.4611 40.0515 35.7271 40.7197 35.0166 40.785C33.4727 40.9271 32.2999 39.7646 30.8043 38.7841C28.464 37.25 27.1419 36.295 24.8701 34.798C22.2448 33.068 23.9467 32.1175 25.4429 30.5628C25.8344 30.1562 32.6381 23.9678 32.7697 23.4063C32.7862 23.3361 32.8019 23.074 32.646 22.9363C32.4901 22.7986 32.2611 22.8453 32.0954 22.8827C31.8608 22.936 28.1221 25.4071 20.8794 30.2961C19.8183 31.0247 18.8571 31.3798 17.9958 31.3612C17.0464 31.3407 15.2201 30.8245 13.8624 30.383C12.1972 29.8418 10.8736 29.5556 10.9889 28.6363C11.0489 28.1574 11.7083 27.6678 12.9671 27.1674C20.7188 23.7901 25.8878 21.5635 28.4741 20.4876C35.8585 17.4161 37.393 16.8826 38.3931 16.8648C38.6131 16.8611 39.1049 16.9156 39.4235 17.1741C39.6354 17.3582 39.7705 17.6152 39.802 17.8942C39.856 18.2406 39.871 18.5919 39.8467 18.9416Z" fill="white"/>
</g>
<defs>
<clipPath id="clip0_14_111">
<rect width="53.181" height="54.8966" fill="white" transform="translate(0.93103)"/>
</clipPath>
</defs>
</svg>
