<svg width="49" height="55" viewBox="0 0 49 55" fill="none" xmlns="http://www.w3.org/2000/svg">
<g clip-path="url(#clip0_14_109)">
<path d="M3.37643 6.80758C0 10.184 0 15.6189 0 26.4877V28.4091C0 39.2779 0 44.7128 3.37643 48.0892C6.75284 51.4656 12.1878 51.4656 23.0565 51.4656H24.9779C35.8467 51.4656 41.2817 51.4656 44.658 48.0892C48.0345 44.7128 48.0345 39.2779 48.0345 28.4091V26.4877C48.0345 15.6189 48.0345 10.184 44.658 6.80758C41.2817 3.43115 35.8467 3.43115 24.9779 3.43115H23.0565C12.1878 3.43115 6.75284 3.43115 3.37643 6.80758ZM8.10582 18.0417H13.5898C13.7699 27.2082 17.8127 31.091 21.0151 31.8916V18.0417H26.1788V25.9473C29.341 25.6071 32.6634 22.0045 33.7842 18.0417H38.9479C38.5255 20.0969 37.6835 22.0427 36.4747 23.7578C35.266 25.4728 33.7165 26.9199 31.9229 28.0088C33.9254 29.003 35.6942 30.4109 37.1122 32.1394C38.5302 33.868 39.5652 35.8778 40.1488 38.036H34.4647C33.941 36.1613 32.8751 34.4831 31.4009 33.2119C29.9269 31.9408 28.1101 31.1333 26.1788 30.8909V38.036H25.5583C14.6105 38.036 8.36601 30.5306 8.10582 18.0417Z" fill="white"/>
</g>
<defs>
<clipPath id="clip0_14_109">
<rect width="48.0345" height="54.8966" fill="white"/>
</clipPath>
</defs>
</svg>
